<?xml version="1.0" encoding="UTF-8" standalone="no"?>
<!-- Created with Inkscape (http://www.inkscape.org/) -->

<svg
   width="16.5mm"
   height="18.5mm"
   viewBox="0 0 16.5 18.5"
   version="1.1"
   id="svg1"
   xmlns="http://www.w3.org/2000/svg"
   xmlns:svg="http://www.w3.org/2000/svg">
  <defs
     id="defs1" />
  <g
     id="g31"
     style="display:inline"
     transform="translate(-171.56758,-22.591185)">
    <g
       id="g34"
       style="display:inline"
       transform="translate(87.585546,23.373912)">
      <path
         id="path32"
         style="display:inline;fill:#006680;stroke:#00222b;stroke-width:0.2"
         d="m 100.06881,13.088584 -7.682379,4.481154 -7.721985,-4.412563 -0.0396,-8.8937175 7.682384,-4.48115383 7.72198,4.41256293 z" />
      <path
         id="path33"
         style="display:inline;fill:none;stroke:#ffcc00;stroke-width:0.43;stroke-dasharray:1.72, 0.86;stroke-dashoffset:0"
         d="M 99.155483,12.560603 92.381636,16.511805 85.57287,12.621082 85.53795,4.7791555 92.311799,0.82795284 99.120565,4.7186763 Z" />
      <path
         d="m 96.226059,7.0319061 q 0,0.5526903 -0.21504,1.0272224 -0.208895,0.4689493 -0.589823,0.8150786 -0.473087,0.4298699 -1.118206,0.6475964 -0.645119,0.2121444 -1.628157,0.2121444 h -1.21651 v 3.0984151 h -1.21651 V 4.5196775 h 2.482172 q 0.823295,0 1.394685,0.1284028 0.571392,0.1228201 1.013759,0.3907911 0.522239,0.3182156 0.804863,0.7927477 0.288767,0.4745321 0.288767,1.200287 z m -1.265662,0.027913 q 0,-0.4298702 -0.165887,-0.7480858 Q 94.628621,5.9935181 94.290702,5.7925398 93.99579,5.6194752 93.614863,5.5468997 93.24008,5.4687414 92.662544,5.4687414 h -1.204221 v 3.3217245 h 1.026046 q 0.737279,0 1.198078,-0.1172374 0.4608,-0.1228201 0.749567,-0.3852084 0.288767,-0.267971 0.405503,-0.5638557 0.12288,-0.2958846 0.12288,-0.6643453 z"
         id="path34"
         style="font-size:11.9944px;font-family:Kailasa;-inkscape-font-specification:'Kailasa, Normal';fill:#ffcc00;stroke:#ffcc00;stroke-width:1.14837"
         aria-label="P" />
    </g>
  </g>
</svg>
