<?xml version="1.0" encoding="UTF-8" standalone="no"?>
<!-- Created with Inkscape (http://www.inkscape.org/) -->

<svg
   width="82mm"
   height="48mm"
   viewBox="0 0 82.000002 47.999999"
   version="1.1"
   id="svg1"
   xmlns="http://www.w3.org/2000/svg"
   xmlns:svg="http://www.w3.org/2000/svg">
  <defs
     id="defs1" />
  <g
     id="g31"
     style="display:inline"
     transform="translate(-2.885451,-52.790105)">
    <g
       id="g12"
       style="display:inline">
      <g
         id="g8">
        <path
           id="path1"
           style="display:inline;fill:#fff7dd;stroke:#ffcc00;stroke-width:1.17405;stroke-dasharray:none"
           transform="matrix(0.34070065,0,0,0.34070065,-12.759944,52.927752)"
           d="M 120.97819,85.361746 98.429413,98.514506 75.764398,85.563069 75.648164,59.458872 98.196945,46.306112 120.86196,59.257549 Z" />
        <path
           id="path2"
           style="display:inline;fill:#fff7dd;stroke:#ffcc00;stroke-width:1.17405;stroke-dasharray:none"
           transform="matrix(0.34070065,0,0,0.34070065,2.5948256,52.927752)"
           d="M 120.97819,85.361746 98.429413,98.514506 75.764398,85.563069 75.648164,59.458872 98.196945,46.306112 120.86196,59.257549 Z" />
        <path
           id="path3"
           style="display:inline;fill:#fff7dd;stroke:#ffcc00;stroke-width:1.17405;stroke-dasharray:none"
           transform="matrix(0.34070065,0,0,0.34070065,17.999944,52.927753)"
           d="M 120.97819,85.361746 98.429413,98.514506 75.764398,85.563069 75.648164,59.458872 98.196945,46.306112 120.86196,59.257549 Z" />
        <path
           id="path4"
           style="display:inline;fill:#fff7dd;stroke:#ffcc00;stroke-width:1.17405;stroke-dasharray:none"
           transform="matrix(0.34070065,0,0,0.34070065,33.407819,52.927752)"
           d="M 120.97819,85.361746 98.429413,98.514506 75.764398,85.563069 75.648164,59.458872 98.196945,46.306112 120.86196,59.257549 Z" />
      </g>
      <g
         id="g11"
         style="display:inline">
        <path
           id="path8"
           style="display:inline;fill:none;stroke:#006680;stroke-width:1.43138;stroke-dasharray:5.72554, 2.86275;stroke-dashoffset:0"
           transform="matrix(0.30040863,0,0,0.30040863,-8.7988008,55.850519)"
           d="M 120.97819,85.361746 98.429413,98.514506 75.764398,85.563069 75.648164,59.458872 98.196945,46.306112 120.86196,59.257549 Z" />
        <path
           id="path9"
           style="display:inline;fill:none;stroke:#006680;stroke-width:1.43138;stroke-dasharray:5.72554, 2.86275;stroke-dashoffset:0"
           transform="matrix(0.30040863,0,0,0.30040863,6.5559688,55.850519)"
           d="M 120.97819,85.361746 98.429413,98.514506 75.764398,85.563069 75.648164,59.458872 98.196945,46.306112 120.86196,59.257549 Z" />
        <path
           id="path10"
           style="display:inline;fill:none;stroke:#006680;stroke-width:1.43138;stroke-dasharray:5.72554, 2.86275;stroke-dashoffset:0"
           transform="matrix(0.30040863,0,0,0.30040863,21.961087,55.850519)"
           d="M 120.97819,85.361746 98.429413,98.514506 75.764398,85.563069 75.648164,59.458872 98.196945,46.306112 120.86196,59.257549 Z" />
        <path
           id="path11"
           style="display:inline;fill:none;stroke:#006680;stroke-width:1.43138;stroke-dasharray:5.72554, 2.86275;stroke-dashoffset:0"
           transform="matrix(0.30040863,0,0,0.30040863,37.368962,55.850519)"
           d="M 120.97819,85.361746 98.429413,98.514506 75.764398,85.563069 75.648164,59.458872 98.196945,46.306112 120.86196,59.257549 Z" />
      </g>
    </g>
    <g
       id="g22"
       style="display:inline">
      <g
         id="g16"
         style="display:inline">
        <path
           id="path12"
           style="display:inline;fill:#006680;stroke:#006680;stroke-width:1.17405;stroke-dasharray:none;stroke-opacity:1"
           d="M 120.97819,85.361746 98.429413,98.514506 75.764398,85.563069 75.648164,59.458872 98.196945,46.306112 120.86196,59.257549 Z"
           transform="matrix(0.34070065,0,0,0.34070065,-20.579418,38.31099)" />
        <path
           id="path13"
           style="display:inline;fill:#006680;stroke:#006680;stroke-width:1.17405;stroke-dasharray:none;stroke-opacity:1"
           transform="matrix(0.34070065,0,0,0.34070065,-5.141383,38.31099)"
           d="M 120.97819,85.361746 98.429413,98.514506 75.764398,85.563069 75.648164,59.458872 98.196945,46.306112 120.86196,59.257549 Z" />
        <path
           id="path14"
           style="display:inline;fill:#006680;stroke:#006680;stroke-width:1.17405;stroke-dasharray:none;stroke-opacity:1"
           transform="matrix(0.34070065,0,0,0.34070065,10.300786,38.31099)"
           d="M 120.97819,85.361746 98.429413,98.514506 75.764398,85.563069 75.648164,59.458872 98.196945,46.306112 120.86196,59.257549 Z" />
        <path
           id="path15"
           style="display:inline;fill:#006680;stroke:#006680;stroke-width:1.17405;stroke-dasharray:none;stroke-opacity:1"
           transform="matrix(0.34070065,0,0,0.34070065,25.740913,38.31099)"
           d="M 120.97819,85.361746 98.429413,98.514506 75.764398,85.563069 75.648164,59.458872 98.196945,46.306112 120.86196,59.257549 Z" />
        <path
           id="path16"
           style="display:inline;fill:#006680;stroke:#006680;stroke-width:1.17405;stroke-dasharray:none;stroke-opacity:1"
           transform="matrix(0.34070065,0,0,0.34070065,41.171591,38.31099)"
           d="M 120.97819,85.361746 98.429413,98.514506 75.764398,85.563069 75.648164,59.458872 98.196945,46.306112 120.86196,59.257549 Z" />
      </g>
      <g
         id="g21"
         style="display:inline">
        <path
           id="path17"
           style="display:inline;fill:none;stroke:#ffcc00;stroke-width:1.43138;stroke-dasharray:5.72554, 2.86275;stroke-dashoffset:0"
           d="M 120.97819,85.361746 98.429413,98.514506 75.764398,85.563069 75.648164,59.458872 98.196945,46.306112 120.86196,59.257549 Z"
           transform="matrix(0.30040863,0,0,0.30040863,-16.618275,41.233757)" />
        <path
           id="path18"
           style="display:inline;fill:none;stroke:#ffcc00;stroke-width:1.43138;stroke-dasharray:5.72554, 2.86275;stroke-dashoffset:0"
           transform="matrix(0.30040863,0,0,0.30040863,-1.1802398,41.233757)"
           d="M 120.97819,85.361746 98.429413,98.514506 75.764398,85.563069 75.648164,59.458872 98.196945,46.306112 120.86196,59.257549 Z" />
        <path
           id="path19"
           style="display:inline;fill:none;stroke:#ffcc00;stroke-width:1.43138;stroke-dasharray:5.72554, 2.86275;stroke-dashoffset:0"
           transform="matrix(0.30040863,0,0,0.30040863,14.261929,41.233757)"
           d="M 120.97819,85.361746 98.429413,98.514506 75.764398,85.563069 75.648164,59.458872 98.196945,46.306112 120.86196,59.257549 Z" />
        <path
           id="path20"
           style="display:inline;fill:none;stroke:#ffcc00;stroke-width:1.43138;stroke-dasharray:5.72554, 2.86275;stroke-dashoffset:0"
           transform="matrix(0.30040863,0,0,0.30040863,29.702262,41.233757)"
           d="M 120.97819,85.361746 98.429413,98.514506 75.764398,85.563069 75.648164,59.458872 98.196945,46.306112 120.86196,59.257549 Z" />
        <path
           id="path21"
           style="display:inline;fill:none;stroke:#ffcc00;stroke-width:1.43138;stroke-dasharray:5.72554, 2.86275;stroke-dashoffset:0"
           transform="matrix(0.30040863,0,0,0.30040863,45.132734,41.233757)"
           d="M 120.97819,85.361746 98.429413,98.514506 75.764398,85.563069 75.648164,59.458872 98.196945,46.306112 120.86196,59.257549 Z" />
      </g>
    </g>
    <g
       id="g30"
       style="display:inline">
      <path
         d="M 72.156081,78.728767 H 71.005075 L 68.367166,75.75944 67.70433,76.467063 v 2.261704 h -0.886768 v -6.668669 h 0.886768 v 3.47989 l 3.238044,-3.47989 h 1.07487 l -2.978285,3.135036 z"
         id="path22"
         style="font-size:9.17222px;font-family:Kailasa;-inkscape-font-specification:'Kailasa, Normal';fill:#006680;stroke:#006680;stroke-width:0.712814"
         transform="scale(0.97160286,1.0292271)"
         aria-label="K" />
      <path
         d="m 56.573079,78.728767 h -1.151006 l -2.230354,-2.651345 h -1.249536 v 2.651345 h -0.886768 v -6.668669 h 1.867586 q 0.604614,0 1.007691,0.08062 0.403076,0.07614 0.725537,0.277674 0.362768,0.22841 0.564306,0.577743 0.206017,0.344854 0.206017,0.87781 0,0.721058 -0.362769,1.209228 -0.362768,0.483691 -0.998733,0.730016 z m -2.073602,-4.792126 q 0,-0.286632 -0.103009,-0.506085 -0.09853,-0.223931 -0.331418,-0.376204 -0.192581,-0.12988 -0.456819,-0.179145 -0.264239,-0.05374 -0.622529,-0.05374 h -1.043519 v 2.516987 h 0.895725 q 0.42099,0 0.734494,-0.07166 0.313503,-0.07614 0.532956,-0.277675 0.201538,-0.188102 0.295589,-0.429948 0.09853,-0.246324 0.09853,-0.622528 z"
         id="path23"
         style="font-size:9.17222px;font-family:Kailasa;-inkscape-font-specification:'Kailasa, Normal';fill:#006680;stroke:#006680;stroke-width:0.712814"
         transform="scale(0.97160286,1.0292271)"
         aria-label="R" />
      <path
         d="m 39.39999,72.825942 q 0.407554,0.447862 0.622528,1.097263 0.219453,0.6494 0.219453,1.473467 0,0.824066 -0.223931,1.477945 -0.219453,0.649401 -0.61805,1.083827 -0.412034,0.452341 -0.97634,0.680751 -0.559828,0.22841 -1.280886,0.22841 -0.703144,0 -1.280887,-0.232889 -0.573263,-0.232888 -0.976339,-0.676272 -0.403077,-0.443383 -0.622529,-1.088305 -0.214974,-0.644922 -0.214974,-1.473467 0,-0.81511 0.214974,-1.460031 0.214974,-0.649401 0.627007,-1.110699 0.394119,-0.438905 0.97634,-0.671793 0.5867,-0.232889 1.276408,-0.232889 0.716579,0 1.285364,0.237367 0.573264,0.232889 0.971862,0.667315 z m -0.08062,2.57073 q 0,-1.298801 -0.582221,-2.001945 -0.582221,-0.707622 -1.589911,-0.707622 -1.016647,0 -1.598868,0.707622 -0.577743,0.703144 -0.577743,2.001945 0,1.312236 0.591179,2.010902 0.591178,0.694186 1.585432,0.694186 0.994255,0 1.580954,-0.694186 0.591178,-0.698666 0.591178,-2.010902 z"
         id="path24"
         style="font-size:9.17222px;font-family:Kailasa;-inkscape-font-specification:'Kailasa, Normal';fill:#006680;stroke:#006680;stroke-width:0.712814"
         transform="scale(0.97160286,1.0292271)"
         aria-label="O" />
      <path
         d="m 25.464029,72.060098 -1.733227,6.668669 h -0.998733 l -1.401809,-5.535578 -1.370459,5.535578 h -0.97634 l -1.764577,-6.668669 h 0.90916 l 1.401809,5.544535 1.379416,-5.544535 h 0.900204 l 1.392851,5.598278 1.392852,-5.598278 z"
         id="path25"
         style="font-size:9.17222px;font-family:Kailasa;-inkscape-font-specification:'Kailasa, Normal';fill:#006680;stroke:#006680;stroke-width:0.712814"
         transform="scale(0.97160286,1.0292271)"
         aria-label="W" />
      <path
         d="M 79.399831,64.527077 H 78.513063 V 61.26216 h -3.327617 v 3.264917 h -0.886767 v -6.66867 h 0.886767 v 2.615516 h 3.327617 v -2.615516 h 0.886768 z"
         id="path26"
         style="font-size:9.17222px;font-family:Kailasa;-inkscape-font-specification:'Kailasa, Normal';fill:#ffcc00;stroke:#ffcc00;stroke-width:0.712814"
         transform="scale(0.97160286,1.0292271)"
         aria-label="H" />
      <path
         style="font-size:9.17222px;font-family:Kailasa;-inkscape-font-specification:'Kailasa, Normal';fill:#ffcc00;stroke:#ffcc00;stroke-width:0.676963"
         d="m 65.063059,62.737252 q -0.246324,0.107487 -0.447862,0.201538 -0.197059,0.09405 -0.51952,0.19706 -0.273196,0.08509 -0.595657,0.143316 -0.317982,0.0627 -0.703144,0.0627 -0.725537,0 -1.321194,-0.201538 -0.591178,-0.206016 -1.030083,-0.640443 -0.429948,-0.425469 -0.671794,-1.079348 -0.241845,-0.658358 -0.241845,-1.527211 0,-0.824066 0.232888,-1.473467 0.232889,-0.6494 0.671794,-1.097262 0.425469,-0.434427 1.025604,-0.662836 0.604615,-0.22841 1.339109,-0.22841 0.537435,0 1.070391,0.12988 0.537434,0.12988 1.191313,0.456819 v 1.052477 h -0.06718 q -0.550871,-0.461298 -1.092784,-0.671794 -0.541913,-0.210495 -1.159963,-0.210495 -0.506085,0 -0.913639,0.165709 -0.403077,0.161231 -0.721059,0.506085 -0.309025,0.335896 -0.483691,0.850938 -0.170188,0.510563 -0.170188,1.182356 0,0.703144 0.188102,1.209229 0.192581,0.506084 0.492649,0.824066 0.313504,0.331418 0.730016,0.492649 0.42099,0.156752 0.886767,0.156752 0.640443,0 1.200271,-0.219453 0.559828,-0.219452 1.047998,-0.658357 h 0.0627 z"
         id="path27"
         transform="scale(0.95086437,1.0516747)"
         aria-label="C" />
      <path
         style="font-size:9.17222px;font-family:Kailasa;-inkscape-font-specification:'Kailasa, Normal';fill:#ffcc00;stroke:#ffcc00;stroke-width:0.681185"
         d="M 50.228778,55.643234 H 47.84615 v 5.880432 h -0.886767 v -5.880432 h -2.382627 v -0.788238 h 5.652022 z"
         id="path28"
         transform="scale(0.92391547,1.0823501)"
         aria-label="T" />
      <path
         style="font-size:9.17222px;font-family:Kailasa;-inkscape-font-specification:'Kailasa, Normal';fill:#ffcc00;stroke:#ffcc00;stroke-width:0.661504"
         d="m 34.717463,59.669735 h -0.944989 l -0.653879,-1.858629 h -2.884233 l -0.653879,1.858629 h -0.900204 l 2.427414,-6.66867 H 32.29005 Z M 32.845399,57.04974 31.676478,53.775867 30.503079,57.04974 Z"
         id="path29"
         transform="scale(0.89447918,1.117969)"
         aria-label="A" />
      <path
         d="m 14.492967,64.752381 q 0,0.443383 -0.156752,0.824066 -0.152273,0.376205 -0.429947,0.653879 -0.344854,0.344854 -0.81511,0.519521 -0.470255,0.170187 -1.186835,0.170187 H 11.017556 V 69.40567 H 10.130788 V 62.737 h 1.809364 q 0.600135,0 1.016647,0.103009 0.416512,0.09853 0.738973,0.313503 0.380683,0.255282 0.5867,0.635965 0.210495,0.380683 0.210495,0.962904 z m -0.922596,0.02239 q 0,-0.344854 -0.120923,-0.600136 -0.120923,-0.255281 -0.367247,-0.416512 -0.214974,-0.138837 -0.492649,-0.197059 -0.273196,-0.0627 -0.694186,-0.0627 h -0.87781 v 2.664781 h 0.74793 q 0.537434,0 0.873331,-0.09405 0.335897,-0.09853 0.546392,-0.309025 0.210495,-0.214974 0.295589,-0.452341 0.08957,-0.237367 0.08957,-0.532956 z"
         id="path30"
         style="font-size:9.17222px;font-family:Kailasa;-inkscape-font-specification:'Kailasa, Normal';fill:#ffcc00;stroke:#ffcc00;stroke-width:0.763529"
         transform="scale(1.0490639,0.95323078)"
         aria-label="P" />
    </g>
    <path
       d="m 44.965367,91.080788 1.174045,-0.06773 q -0.1016,0.2032 -0.293511,0.496711 -0.191911,0.282223 -0.417689,0.62089 -0.225778,0.327378 -0.462845,0.688623 -0.225778,0.349956 -0.41769,0.688623 -0.191911,0.327378 -0.316089,0.620889 -0.112889,0.282223 -0.112889,0.485423 0,0.282223 0.282223,0.282223 0.270933,0 0.733778,-0.31609 0.462845,-0.316089 0.970846,-0.835378 0.214489,-0.214489 0.428978,-0.462845 0.225778,-0.248356 0.428978,-0.485423 0.2032,-0.248356 0.372534,-0.451556 0.169333,-0.214489 0.270933,-0.349956 l 0.07902,0.04516 q -0.293512,0.395111 -0.677334,0.880534 -0.383823,0.474134 -0.92569,1.016001 -0.541867,0.541867 -1.072446,0.891823 -0.519289,0.338667 -1.038579,0.338667 -0.361244,0 -0.564445,-0.180622 -0.191911,-0.191912 -0.191911,-0.462845 0,-0.09031 0.01129,-0.169334 0.01129,-0.07902 0.03387,-0.124178 h -0.02258 q -0.349956,0.395112 -0.790223,0.666046 -0.440267,0.270933 -0.948268,0.270933 -0.270933,0 -0.462845,-0.1016 -0.191911,-0.1016 -0.316089,-0.270934 -0.112889,-0.180622 -0.169333,-0.395111 -0.05644,-0.225778 -0.05644,-0.462845 0,-0.553156 0.3048,-1.106312 0.304801,-0.553156 0.767646,-0.993423 0.462845,-0.451556 1.02729,-0.72249 0.575734,-0.282223 1.095023,-0.282223 0.395111,0 0.62089,0.169334 0.225778,0.169333 0.372533,0.530578 z m -3.38667,2.889959 q 0,0.327378 0.1016,0.575734 0.112889,0.237067 0.462845,0.237067 0.237067,-0.01129 0.496711,-0.191912 0.259645,-0.191911 0.496712,-0.474134 0.248356,-0.282222 0.462845,-0.620889 0.225778,-0.349956 0.383822,-0.699912 0.169334,-0.349956 0.259645,-0.654756 0.1016,-0.316089 0.1016,-0.530578 0,-0.304801 -0.112889,-0.474134 -0.112889,-0.169334 -0.440267,-0.169334 -0.259645,0 -0.530578,0.158045 -0.259645,0.158044 -0.508001,0.417689 -0.237067,0.259645 -0.462845,0.587023 -0.214489,0.316089 -0.372533,0.654756 -0.158045,0.338667 -0.248356,0.654756 -0.09031,0.304801 -0.09031,0.530579 z m 6.084707,-0.92569 q 0.158044,-0.2032 0.451556,-0.575734 0.3048,-0.372534 0.688623,-0.733779 0.383822,-0.361244 0.824089,-0.632178 0.440268,-0.270934 0.880535,-0.270934 0.372533,0 0.564445,0.21449 0.191911,0.2032 0.191911,0.508 0,0.383823 -0.248356,0.790223 -0.237067,0.395112 -0.530578,0.801512 -0.293512,0.395111 -0.541867,0.767645 -0.237067,0.361245 -0.237067,0.677334 0,0.135467 0.06773,0.225778 0.06773,0.07902 0.225778,0.07902 0.158045,0 0.51929,-0.237067 0.372533,-0.248356 0.993423,-0.903112 0.485423,-0.51929 0.891823,-1.004713 0.4064,-0.496711 0.609601,-0.745067 l 0.112889,0.05644 q -0.293512,0.349955 -0.72249,0.869245 -0.428978,0.519289 -0.914401,1.02729 -0.587023,0.620889 -1.004712,0.880534 -0.406401,0.259645 -0.846668,0.259645 -0.428978,0 -0.632178,-0.237067 -0.2032,-0.237067 -0.2032,-0.541867 0,-0.383823 0.237067,-0.790223 0.248355,-0.406401 0.541867,-0.790223 0.293511,-0.395112 0.530578,-0.745068 0.248356,-0.349956 0.248356,-0.6096 0,-0.124178 -0.07902,-0.203201 -0.07902,-0.07902 -0.237067,-0.07902 -0.225778,0 -0.530579,0.214489 -0.3048,0.2032 -0.643467,0.541867 -0.338667,0.327378 -0.688623,0.756357 -0.349956,0.417689 -0.666045,0.846667 -0.3048,0.41769 -0.553156,0.812801 -0.248356,0.395112 -0.395112,0.677334 l -1.140178,0.03387 q 0.598311,-0.993423 1.196623,-1.964269 0.609601,-0.982134 1.196623,-2.009424 l 1.286935,-0.04516 -1.467557,2.05458 z m 8.590863,-1.964269 1.174046,-0.06773 q -0.1016,0.2032 -0.293512,0.496711 -0.191911,0.282223 -0.417689,0.62089 -0.225778,0.327378 -0.462845,0.688623 -0.225778,0.349956 -0.417689,0.688623 -0.191912,0.327378 -0.316089,0.620889 -0.112889,0.282223 -0.112889,0.485423 0,0.282223 0.282222,0.282223 0.270934,0 0.733779,-0.31609 0.462845,-0.316089 0.970845,-0.835378 0.214489,-0.214489 0.428978,-0.462845 0.225778,-0.248356 0.428978,-0.485423 0.203201,-0.248356 0.372534,-0.451556 0.169334,-0.214489 0.270934,-0.349956 l 0.07902,0.04516 q -0.293511,0.395111 -0.677334,0.880534 -0.383823,0.474134 -0.92569,1.016001 -0.541867,0.541867 -1.072445,0.891823 -0.51929,0.338667 -1.038579,0.338667 -0.361245,0 -0.564445,-0.180622 -0.191911,-0.191912 -0.191911,-0.462845 0,-0.09031 0.01129,-0.169334 0.01129,-0.07902 0.03387,-0.124178 h -0.02258 q -0.349956,0.395112 -0.790223,0.666046 -0.440267,0.270933 -0.948267,0.270933 -0.270934,0 -0.462845,-0.1016 -0.191912,-0.1016 -0.316089,-0.270934 -0.112889,-0.180622 -0.169334,-0.395111 -0.05644,-0.225778 -0.05644,-0.462845 0,-0.553156 0.3048,-1.106312 0.3048,-0.553156 0.767645,-0.993423 0.462845,-0.451556 1.02729,-0.72249 0.575734,-0.282223 1.095023,-0.282223 0.395112,0 0.62089,0.169334 0.225778,0.169333 0.372534,0.530578 z m -3.38667,2.889959 q 0,0.327378 0.1016,0.575734 0.112889,0.237067 0.462845,0.237067 0.237067,-0.01129 0.496712,-0.191912 0.259644,-0.191911 0.496711,-0.474134 0.248356,-0.282222 0.462845,-0.620889 0.225778,-0.349956 0.383823,-0.699912 0.169333,-0.349956 0.259644,-0.654756 0.101601,-0.316089 0.101601,-0.530578 0,-0.304801 -0.112889,-0.474134 -0.112889,-0.169334 -0.440268,-0.169334 -0.259644,0 -0.530578,0.158045 -0.259645,0.158044 -0.508,0.417689 -0.237067,0.259645 -0.462845,0.587023 -0.214489,0.316089 -0.372534,0.654756 -0.158045,0.338667 -0.248356,0.654756 -0.09031,0.304801 -0.09031,0.530579 z m 9.945511,-6.874941 -3.488271,5.554139 q -0.440267,0.711201 -0.699911,1.185335 -0.259645,0.462845 -0.259645,0.756356 0,0.304801 0.248356,0.304801 0.237067,0 0.643467,-0.259645 0.4064,-0.259645 0.869245,-0.72249 0.428979,-0.428978 0.846668,-0.914401 0.417689,-0.485422 0.812801,-1.004712 l 0.1016,0.03387 q -0.135467,0.180622 -0.316089,0.4064 -0.169334,0.225778 -0.361245,0.462845 -0.191912,0.225778 -0.395112,0.462845 -0.191911,0.225778 -0.383822,0.417689 -0.654757,0.666046 -1.162757,0.993424 -0.496712,0.327378 -1.038579,0.327378 -0.767645,0 -0.767645,-0.677334 0,-0.316089 0.225778,-0.790223 0.237067,-0.485423 0.722489,-1.298224 L 61.56004,87.16354 Z m -4.278485,8.782765 q -0.05644,-0.01129 -0.2032,-0.01129 -0.485423,0 -0.745068,0.349956 -0.270933,0.349956 -0.270933,0.857956 0,0.598312 0.372533,0.936979 0.361245,0.338667 0.903113,0.338667 0.575733,0 1.083734,-0.248356 0.508,-0.237067 0.948268,-0.643467 0.440267,-0.395112 0.824089,-0.914401 0.395112,-0.508001 0.72249,-1.049868 0.338667,-0.541867 0.632178,-1.061156 0.293512,-0.51929 0.541868,-0.936979 l -0.02258,-0.02258 q -0.169334,0.2032 -0.428978,0.485423 -0.248356,0.270933 -0.564445,0.530578 -0.31609,0.248356 -0.666046,0.428978 -0.349955,0.180623 -0.7112,0.180623 -0.372534,0 -0.530579,-0.214489 -0.169333,-0.214489 -0.169333,-0.508001 0,-0.282222 0.158044,-0.643467 0.158045,-0.361245 0.395112,-0.790223 0.248356,-0.440267 0.553156,-0.92569 0.3048,-0.485423 0.609601,-1.004712 l 1.196623,-0.04516 q -0.948267,1.478846 -1.478846,2.336803 -0.530578,0.857956 -0.530578,1.219201 0,0.135467 0.07902,0.225778 0.09031,0.07902 0.214489,0.07902 0.203201,0 0.51929,-0.2032 0.316089,-0.214489 0.666045,-0.564445 0.361245,-0.349956 0.722489,-0.801512 0.361245,-0.462845 0.654757,-0.948268 0.248356,-0.4064 0.440267,-0.745067 0.191911,-0.338667 0.282222,-0.553156 l 1.106313,-0.04516 q -0.609601,1.049868 -1.185335,2.099736 -0.564445,1.038579 -1.185335,2.065868 0.541868,-0.158044 1.072446,-0.485422 0.530578,-0.338667 1.016001,-0.778934 0.496712,-0.440268 0.914401,-0.936979 0.428978,-0.496712 0.767645,-0.970846 l 0.09031,0.07902 q -0.383822,0.553156 -0.846667,1.083734 -0.462845,0.51929 -0.982134,0.959557 -0.508001,0.428978 -1.049868,0.745067 -0.541867,0.316089 -1.083735,0.451556 -0.4064,0.688623 -0.914401,1.275646 -0.508,0.587023 -1.117601,1.016001 -0.6096,0.428978 -1.320801,0.666045 -0.711201,0.248356 -1.524002,0.248356 -0.4064,0 -0.790223,-0.07902 -0.383822,-0.06773 -0.677334,-0.248356 -0.293511,-0.169334 -0.474133,-0.462845 -0.180623,-0.282223 -0.180623,-0.699912 0,-0.338667 0.146756,-0.575734 0.135467,-0.237067 0.372534,-0.395111 0.225778,-0.146756 0.530578,-0.225778 0.293511,-0.06773 0.6096,-0.06773 0.135467,0 0.282223,0.01129 0.135467,0.01129 0.225778,0.03387 z m 8.037708,-4.662316 0.07902,-0.2032 h 0.869245 l 0.846668,-1.422402 1.219201,-0.04516 -0.936979,1.467557 h 1.433691 l -0.1016,0.2032 H 68.52531 q -0.508,0.835379 -0.857956,1.411113 -0.349956,0.564445 -0.564445,0.948267 -0.2032,0.372534 -0.3048,0.598312 -0.09031,0.225778 -0.09031,0.395111 0,0.146756 0.07902,0.237067 0.07902,0.09031 0.225778,0.09031 0.282222,0 0.745067,-0.282223 0.462845,-0.293511 0.993423,-0.801512 0.361245,-0.361245 0.790223,-0.846667 0.428979,-0.485423 0.801512,-0.982135 l 0.06773,0.05644 q -0.259645,0.338667 -0.654756,0.824089 -0.395112,0.485423 -0.869246,0.959557 -0.259644,0.259645 -0.541867,0.496712 -0.270934,0.225778 -0.553156,0.4064 -0.282223,0.169334 -0.553156,0.270934 -0.270934,0.1016 -0.530579,0.1016 -0.361244,0 -0.632178,-0.158045 -0.270934,-0.169333 -0.270934,-0.575734 0,-0.293511 0.124178,-0.598311 0.124178,-0.31609 0.338667,-0.688623 0.225778,-0.372534 0.51929,-0.82409 0.293511,-0.451556 0.632178,-1.038579 z m 5.32836,-0.2032 q -0.530579,0.835378 -0.914401,1.43369 -0.383823,0.587023 -0.632179,1.004712 -0.237067,0.41769 -0.361245,0.688623 -0.112889,0.259645 -0.112889,0.428978 0,0.135467 0.04516,0.225778 0.05644,0.07902 0.158045,0.07902 0.225778,0 0.632178,-0.259645 0.417689,-0.259645 1.038579,-0.891823 0.248356,-0.259645 0.485423,-0.508001 0.237067,-0.259644 0.440267,-0.496711 0.214489,-0.237067 0.372533,-0.428978 0.169334,-0.191912 0.270934,-0.304801 l 0.1016,0.06773 q -0.135467,0.180622 -0.338667,0.417689 -0.191911,0.225778 -0.417689,0.485423 -0.225778,0.248355 -0.462845,0.496711 -0.237067,0.248356 -0.462845,0.474134 -0.654756,0.654756 -1.12889,0.914401 -0.462845,0.259645 -0.857956,0.259645 -0.372534,0 -0.575734,-0.2032 -0.203201,-0.203201 -0.203201,-0.530579 0,-0.225778 0.09031,-0.462845 0.07902,-0.248356 0.282222,-0.6096 0.2032,-0.361245 0.541867,-0.891823 0.338667,-0.541868 0.846668,-1.332091 z m 0.654756,-2.506136 q 0.214489,0 0.372534,0.158045 0.169333,0.158044 0.169333,0.372533 0,0.225778 -0.180622,0.41769 -0.180623,0.180622 -0.406401,0.180622 -0.248356,0 -0.428978,-0.124178 -0.180622,-0.135467 -0.180622,-0.395111 0,-0.259645 0.191911,-0.428979 0.2032,-0.180622 0.462845,-0.180622 z m 5.452547,3.567292 q -0.417689,0.508001 -0.903112,1.061157 -0.485422,0.541867 -1.049867,0.993423 -0.553156,0.451556 -1.196624,0.745068 -0.632178,0.293511 -1.343379,0.293511 -0.677334,0 -1.038579,-0.361245 -0.361245,-0.372533 -0.361245,-1.083734 0,-0.541867 0.31609,-1.061157 0.316089,-0.519289 0.8128,-0.92569 0.496712,-0.4064 1.095024,-0.654756 0.598312,-0.248356 1.162757,-0.248356 0.519289,0 0.824089,0.21449 0.304801,0.2032 0.304801,0.508 0,0.214489 -0.09031,0.395112 -0.07902,0.169333 -0.214489,0.293511 -0.135467,0.112889 -0.3048,0.180622 -0.169334,0.05644 -0.338667,0.05644 -0.146756,0 -0.259645,-0.02258 0.07902,-0.259645 0.169334,-0.530578 0.09031,-0.270934 0.09031,-0.541867 0,-0.191912 -0.09031,-0.304801 -0.09031,-0.112889 -0.248356,-0.112889 -0.293511,0 -0.666045,0.237067 -0.372534,0.225778 -0.699912,0.62089 -0.327378,0.383822 -0.553156,0.891823 -0.225778,0.496711 -0.225778,1.038579 0,0.428978 0.259645,0.733778 0.259644,0.293512 0.722489,0.293512 0.553156,0 1.095024,-0.304801 0.553156,-0.3048 1.038578,-0.733778 0.496712,-0.440267 0.903112,-0.903112 0.406401,-0.474134 0.688623,-0.812801 z m 0.507996,2.87867 q 0.575734,-0.124178 1.061157,-0.417689 0.496712,-0.304801 0.92569,-0.699912 0.428978,-0.406401 0.801512,-0.869245 0.383822,-0.474134 0.745067,-0.948268 l 0.09031,0.06773 q -0.451556,0.587023 -0.903112,1.151468 -0.451556,0.553156 -0.993423,0.982135 -0.530578,0.428978 -1.174046,0.688622 -0.632178,0.259645 -1.456268,0.259645 -0.293511,0 -0.587023,-0.06773 -0.282222,-0.05644 -0.508,-0.191912 -0.237067,-0.146755 -0.372534,-0.372533 -0.146756,-0.237067 -0.146756,-0.575734 0,-0.180623 0.05644,-0.361245 0.04516,-0.180622 0.146756,-0.327378 0.1016,-0.146756 0.259644,-0.237067 0.146756,-0.1016 0.349956,-0.1016 0.259645,0 0.395112,0.146756 0.146756,0.146755 0.146756,0.338667 0,0.237066 -0.135467,0.361244 -0.135467,0.124178 -0.316089,0.124178 -0.146756,0 -0.248356,-0.05644 -0.05644,0.1016 -0.09031,0.225778 -0.04516,0.112889 -0.04516,0.237067 0,0.316089 0.237067,0.519289 0.248356,0.2032 0.575734,0.2032 0.2032,0 0.4064,-0.06773 0.214489,-0.06773 0.372534,-0.191911 0.169333,-0.135467 0.270933,-0.31609 0.101601,-0.180622 0.101601,-0.395111 0,-0.293511 -0.146756,-0.530578 -0.135467,-0.248356 -0.3048,-0.474134 -0.169334,-0.225778 -0.31609,-0.451556 -0.135466,-0.237067 -0.135466,-0.496712 0,-0.316089 0.146755,-0.553156 0.146756,-0.237067 0.383823,-0.395111 0.237067,-0.169334 0.530578,-0.248356 0.293512,-0.07902 0.598312,-0.07902 0.541867,0 0.903112,0.237067 0.372534,0.225778 0.372534,0.654757 0,0.327378 -0.214489,0.541867 -0.21449,0.2032 -0.541868,0.2032 -0.1016,0 -0.191911,-0.01129 -0.07902,-0.02258 -0.135467,-0.04516 0.124178,-0.225778 0.169334,-0.440267 0.05644,-0.225778 0.05644,-0.440267 0,-0.225778 -0.135467,-0.395111 -0.124178,-0.169334 -0.383822,-0.169334 -0.316089,0 -0.485423,0.2032 -0.169333,0.191912 -0.169333,0.485423 0,0.316089 0.135466,0.564445 0.146756,0.237067 0.31609,0.462845 0.169333,0.225778 0.3048,0.474134 0.146756,0.248356 0.146756,0.587023 0,0.214489 -0.07902,0.417689 -0.06773,0.2032 -0.191911,0.361245 -0.124178,0.158044 -0.282223,0.270933 -0.146755,0.101601 -0.316089,0.135467 z"
       id="path31"
       style="font-weight:bold;font-size:11.2889px;font-family:'Snell Roundhand';-inkscape-font-specification:'Snell Roundhand, Bold';fill:#ffce18;stroke:#ffce0a;stroke-width:0.430384"
       aria-label="analytics" />
  </g>
</svg>
